<svg width="101" height="52" viewBox="0 0 101 52" fill="none" xmlns="http://www.w3.org/2000/svg">
<g clip-path="url(#clip0_1101_153)">
<rect x="0.351562" y="0.0913086" width="100" height="51.8175" fill="#F5F5F5"/>
<path d="M61.5879 25.1472V2.84802H74.899L79.1442 15.4593L83.4983 2.84802H96.4828V25.1472H87.1215V12.1005L82.6741 25.1472H75.4277L70.9492 12.0849V25.1472H61.5879Z" fill="#FF0E0F"/>
<path d="M46.2928 25.8314C38.2066 25.8314 32.5774 23.4522 32.4219 18.5849H43.8514C43.8825 20.2332 45.0176 21.1352 46.7904 21.1352C47.9877 21.1352 49.0452 20.6842 49.0452 19.5801C49.0452 18.4761 48.081 18.0095 46.1995 17.5586L41.5966 16.5167C37.2425 15.4748 32.764 13.9665 32.764 9.69013C32.764 4.24751 39.1707 2.17932 46.1995 2.17932C52.6839 2.17932 59.3395 4.16976 59.7438 9.17697H48.7342C48.6098 7.49753 47.5057 6.85997 46.1217 6.85997C44.8155 6.85997 43.8203 7.46643 43.8203 8.46165C43.8203 9.48797 44.8155 9.78343 46.044 10.11L52.093 11.4784C56.6026 12.598 60.2569 14.2464 60.2569 18.4761C60.2569 23.7943 54.0213 25.8314 46.2928 25.8314Z" fill="#FF0E0F"/>
<path d="M17.5784 25.847C8.04602 25.847 3.80078 22.7369 3.80078 17.372V2.84802H14.4994V16.6878C14.4994 18.6005 15.5879 19.6113 17.5784 19.6113C19.5844 19.6113 20.6573 18.6005 20.6573 16.6878V2.84802H31.3559V17.372C31.3559 22.7369 27.1107 25.847 17.5784 25.847Z" fill="#FF0E0F"/>
<path d="M80.5586 49.3055V27.0063H88.8003C93.8075 27.0063 97.0264 28.7946 97.0264 34.0817V34.3305C97.0264 39.9598 93.7608 41.7636 88.9247 41.7636H87.3852V49.3055H80.5586ZM87.3852 37.3473H87.8983C89.3445 37.3473 90.2309 36.5542 90.2309 34.5638V33.9418C90.2309 32.0291 89.3912 31.4071 87.8983 31.4071H87.3852V37.3473Z" fill="#FF0E0F"/>
<path d="M70.5426 49.772C64.7579 49.772 61.9277 47.3773 61.9277 43.2409V27.0063H68.7699V42.9299C68.7699 44.0806 69.3919 44.7337 70.5426 44.7337C71.7089 44.7337 72.3153 44.0806 72.3153 42.9299V27.0063H79.1575V43.2409C79.1575 47.3773 76.3273 49.772 70.5426 49.772Z" fill="#FF0E0F"/>
<path d="M51.3384 49.7722C45.4293 49.7722 41.6816 46.8177 41.6816 40.5042V35.637C41.6816 29.4324 45.4293 26.54 51.3384 26.54C57.232 26.54 60.9951 29.3546 60.9951 35.637V40.5042C60.9951 46.8177 57.232 49.7722 51.3384 49.7722ZM48.897 41.6394C48.897 43.4121 49.5656 44.7184 51.3384 44.7184C53.1111 44.7184 53.7798 43.4121 53.7798 41.6394V34.6729C53.7798 32.9001 53.1111 31.5939 51.3384 31.5939C49.5656 31.5939 48.897 32.9001 48.897 34.6729V41.6394Z" fill="#FF0E0F"/>
<path d="M23.877 49.3055V27.0063H33.1138C38.5098 27.0063 40.9978 28.7946 40.9978 32.8533C40.9978 36.3521 39.2096 37.9382 36.877 38.5291C39.8005 39.0423 41.0134 40.0064 41.0134 42.8055V49.3055H34.1557V42.6811C34.1557 41.266 33.3782 40.644 31.6677 40.644H30.7035V49.3055H23.877ZM30.7035 36.4143H31.7921C33.316 36.4143 34.2335 35.7145 34.2335 33.8796V33.5997C34.2335 31.998 33.3937 31.3604 31.7765 31.3604H30.7035V36.4143Z" fill="#FF0E0F"/>
<path d="M14.0167 49.7722C7.53226 49.7722 3.67578 47.1598 3.67578 40.7997V35.4037C3.67578 29.2147 7.87437 26.54 13.488 26.54C18.5108 26.54 22.5694 28.8726 22.5694 33.9264V34.5018H15.3541V33.942C15.3541 32.5891 14.7165 31.5161 13.3014 31.5161C11.7619 31.5161 10.9533 32.6513 10.9533 34.6262V41.1729C10.9533 43.6454 11.9019 44.765 14.2033 44.765C14.7476 44.765 15.3541 44.6717 15.8206 44.5007V41.7327H12.4928V37.3009H22.585V47.9684C20.9366 48.8859 17.3445 49.7722 14.0167 49.7722Z" fill="#FF0E0F"/>
</g>
<defs>
<clipPath id="clip0_1101_153">
<rect width="100" height="51.8175" fill="white" transform="translate(0.351562 0.0913086)"/>
</clipPath>
</defs>
</svg>
